<mxfile host="app.diagrams.net" agent="Mozilla/5.0 (Windows NT 10.0; Win64; x64) AppleWebKit/537.36 (KHTML, like Gecko) Chrome/136.0.0.0 Safari/537.36" version="27.0.9">
  <diagram name="Page-1" id="RUuD3BY72L1Pq_JYse03">
    <mxGraphModel dx="693" dy="421" grid="0" gridSize="10" guides="1" tooltips="1" connect="1" arrows="1" fold="1" page="1" pageScale="1" pageWidth="850" pageHeight="1100" background="none" math="0" shadow="0">
      <root>
        <mxCell id="0" />
        <mxCell id="1" parent="0" />
        <mxCell id="RIZwLq0AUyx607bSaF3z-1" value="" style="rounded=0;whiteSpace=wrap;html=1;" vertex="1" parent="1">
          <mxGeometry x="20" y="160" width="420" height="160" as="geometry" />
        </mxCell>
        <mxCell id="RIZwLq0AUyx607bSaF3z-11" style="edgeStyle=orthogonalEdgeStyle;rounded=0;orthogonalLoop=1;jettySize=auto;html=1;exitX=1;exitY=0.75;exitDx=0;exitDy=0;entryX=0;entryY=0.75;entryDx=0;entryDy=0;" edge="1" parent="1" source="RIZwLq0AUyx607bSaF3z-2" target="RIZwLq0AUyx607bSaF3z-4">
          <mxGeometry relative="1" as="geometry" />
        </mxCell>
        <mxCell id="RIZwLq0AUyx607bSaF3z-12" value="向对应节点下发策略" style="edgeLabel;html=1;align=center;verticalAlign=middle;resizable=0;points=[];" vertex="1" connectable="0" parent="RIZwLq0AUyx607bSaF3z-11">
          <mxGeometry x="0.2238" y="-1" relative="1" as="geometry">
            <mxPoint x="-16" y="9" as="offset" />
          </mxGeometry>
        </mxCell>
        <mxCell id="RIZwLq0AUyx607bSaF3z-14" style="edgeStyle=orthogonalEdgeStyle;rounded=0;orthogonalLoop=1;jettySize=auto;html=1;exitX=0.25;exitY=1;exitDx=0;exitDy=0;entryX=0.25;entryY=0;entryDx=0;entryDy=0;" edge="1" parent="1" source="RIZwLq0AUyx607bSaF3z-2" target="RIZwLq0AUyx607bSaF3z-13">
          <mxGeometry relative="1" as="geometry" />
        </mxCell>
        <mxCell id="RIZwLq0AUyx607bSaF3z-2" value="Python后端" style="rounded=0;whiteSpace=wrap;html=1;" vertex="1" parent="1">
          <mxGeometry x="320" y="200" width="120" height="120" as="geometry" />
        </mxCell>
        <mxCell id="RIZwLq0AUyx607bSaF3z-3" value="中央管理节点" style="rounded=0;whiteSpace=wrap;html=1;" vertex="1" parent="1">
          <mxGeometry x="20" y="160" width="420" height="40" as="geometry" />
        </mxCell>
        <mxCell id="RIZwLq0AUyx607bSaF3z-9" style="edgeStyle=orthogonalEdgeStyle;rounded=0;orthogonalLoop=1;jettySize=auto;html=1;exitX=0;exitY=0.25;exitDx=0;exitDy=0;entryX=1;entryY=0.25;entryDx=0;entryDy=0;" edge="1" parent="1" source="RIZwLq0AUyx607bSaF3z-4" target="RIZwLq0AUyx607bSaF3z-2">
          <mxGeometry relative="1" as="geometry" />
        </mxCell>
        <mxCell id="RIZwLq0AUyx607bSaF3z-10" value="传输视频流&lt;div&gt;提交违规者信息&lt;/div&gt;" style="edgeLabel;html=1;align=center;verticalAlign=middle;resizable=0;points=[];" vertex="1" connectable="0" parent="RIZwLq0AUyx607bSaF3z-9">
          <mxGeometry x="0.0583" y="-3" relative="1" as="geometry">
            <mxPoint y="-17" as="offset" />
          </mxGeometry>
        </mxCell>
        <mxCell id="RIZwLq0AUyx607bSaF3z-4" value="中继节点" style="rounded=0;whiteSpace=wrap;html=1;" vertex="1" parent="1">
          <mxGeometry x="580" y="200" width="120" height="120" as="geometry" />
        </mxCell>
        <mxCell id="RIZwLq0AUyx607bSaF3z-15" style="edgeStyle=orthogonalEdgeStyle;rounded=0;orthogonalLoop=1;jettySize=auto;html=1;exitX=0.75;exitY=0;exitDx=0;exitDy=0;entryX=0.75;entryY=1;entryDx=0;entryDy=0;" edge="1" parent="1" source="RIZwLq0AUyx607bSaF3z-13" target="RIZwLq0AUyx607bSaF3z-2">
          <mxGeometry relative="1" as="geometry" />
        </mxCell>
        <mxCell id="RIZwLq0AUyx607bSaF3z-16" value="提交策略并&lt;span style=&quot;background-color: light-dark(#ffffff, var(--ge-dark-color, #121212)); color: light-dark(rgb(0, 0, 0), rgb(255, 255, 255));&quot;&gt;实时监控&lt;/span&gt;" style="edgeLabel;html=1;align=center;verticalAlign=middle;resizable=0;points=[];" vertex="1" connectable="0" parent="RIZwLq0AUyx607bSaF3z-15">
          <mxGeometry x="0.1738" y="-1" relative="1" as="geometry">
            <mxPoint x="49" y="7" as="offset" />
          </mxGeometry>
        </mxCell>
        <mxCell id="RIZwLq0AUyx607bSaF3z-13" value="用户" style="rounded=0;whiteSpace=wrap;html=1;" vertex="1" parent="1">
          <mxGeometry x="320" y="400" width="120" height="60" as="geometry" />
        </mxCell>
        <mxCell id="RIZwLq0AUyx607bSaF3z-17" value="提供可视化管理界面" style="edgeLabel;html=1;align=center;verticalAlign=middle;resizable=0;points=[];" vertex="1" connectable="0" parent="1">
          <mxGeometry x="520" y="380" as="geometry">
            <mxPoint x="-224" y="-20" as="offset" />
          </mxGeometry>
        </mxCell>
        <mxCell id="RIZwLq0AUyx607bSaF3z-19" value="Mysql数据库" style="rounded=0;whiteSpace=wrap;html=1;" vertex="1" parent="1">
          <mxGeometry x="20" y="200" width="100" height="60" as="geometry" />
        </mxCell>
        <mxCell id="RIZwLq0AUyx607bSaF3z-21" value="" style="endArrow=classic;startArrow=classic;html=1;rounded=0;exitX=1;exitY=0.5;exitDx=0;exitDy=0;entryX=0;entryY=0.25;entryDx=0;entryDy=0;" edge="1" parent="1" source="RIZwLq0AUyx607bSaF3z-19" target="RIZwLq0AUyx607bSaF3z-2">
          <mxGeometry width="50" height="50" relative="1" as="geometry">
            <mxPoint x="300" y="490" as="sourcePoint" />
            <mxPoint x="350" y="440" as="targetPoint" />
          </mxGeometry>
        </mxCell>
        <mxCell id="RIZwLq0AUyx607bSaF3z-23" value="验证用户登录信息" style="edgeLabel;html=1;align=center;verticalAlign=middle;resizable=0;points=[];" vertex="1" connectable="0" parent="RIZwLq0AUyx607bSaF3z-21">
          <mxGeometry x="-0.3033" relative="1" as="geometry">
            <mxPoint x="30" y="-10" as="offset" />
          </mxGeometry>
        </mxCell>
        <mxCell id="RIZwLq0AUyx607bSaF3z-24" value="存储违规者信息" style="edgeLabel;html=1;align=center;verticalAlign=middle;resizable=0;points=[];" vertex="1" connectable="0" parent="1">
          <mxGeometry x="220" y="240" as="geometry" />
        </mxCell>
      </root>
    </mxGraphModel>
  </diagram>
</mxfile>
